<svg xmlns="http://www.w3.org/2000/svg" viewBox="0 0 128 128" role="img" aria-label="ItsBagelBot">
  <defs>
    <linearGradient id="tan" x1="22" y1="18" x2="112" y2="112" gradientUnits="userSpaceOnUse">
      <stop stop-color="#f5d29a"/>
      <stop offset="1" stop-color="#c9a87c"/>
    </linearGradient>
    <linearGradient id="green" x1="101" y1="14" x2="25" y2="112" gradientUnits="userSpaceOnUse">
      <stop stop-color="#5f9c83"/>
      <stop offset="1" stop-color="#2d6a4f"/>
    </linearGradient>
  </defs>
  <path d="M104 22c-24-15-57-11-77 11C5 58 10 95 38 114" fill="none" stroke="url(#green)" stroke-width="16" stroke-linecap="round"/>
  <path d="M23 53c17-31 61-43 90-16" fill="none" stroke="url(#tan)" stroke-width="16" stroke-linecap="round"/>
  <path d="M29 92c25 29 70 25 88-8" fill="none" stroke="url(#tan)" stroke-width="16" stroke-linecap="round"/>
  <path d="M25 80c21 28 61 34 87 8" fill="none" stroke="url(#green)" stroke-width="16" stroke-linecap="round"/>
  <rect x="43" y="57" width="42" height="28" rx="8" fill="url(#tan)"/>
  <rect x="34" y="63" width="10" height="17" rx="5" fill="#e2bd83"/>
  <rect x="84" y="63" width="10" height="17" rx="5" fill="#e2bd83"/>
  <path d="M64 57V47" stroke="#c9a87c" stroke-width="5" stroke-linecap="round"/>
  <circle cx="64" cy="42" r="5" fill="#e2bd83"/>
  <circle cx="55" cy="71" r="6" fill="#f28c45" stroke="#0a0a0a" stroke-width="4"/>
  <circle cx="73" cy="71" r="6" fill="#f28c45" stroke="#0a0a0a" stroke-width="4"/>
</svg>
